<mxfile host="app.diagrams.net" agent="Mozilla/5.0 (Windows NT 10.0; Win64; x64) AppleWebKit/537.36 (KHTML, like Gecko) Chrome/130.0.0.0 Safari/537.36" version="24.7.17">
  <diagram name="Сторінка-1" id="cSe6l9HCP53ZGR0q84tN">
    <mxGraphModel dx="1108" dy="1159" grid="0" gridSize="10" guides="1" tooltips="1" connect="1" arrows="1" fold="1" page="0" pageScale="1" pageWidth="827" pageHeight="1169" math="0" shadow="0">
      <root>
        <mxCell id="0" />
        <mxCell id="1" parent="0" />
        <mxCell id="HW4OlsrSj3rVqDo6cvlG-3" value="" style="edgeStyle=none;curved=1;rounded=0;orthogonalLoop=1;jettySize=auto;html=1;fontSize=12;startSize=8;endSize=8;" edge="1" parent="1" source="HW4OlsrSj3rVqDo6cvlG-1" target="HW4OlsrSj3rVqDo6cvlG-2">
          <mxGeometry relative="1" as="geometry" />
        </mxCell>
        <mxCell id="HW4OlsrSj3rVqDo6cvlG-1" value="START" style="ellipse;whiteSpace=wrap;html=1;" vertex="1" parent="1">
          <mxGeometry x="189" y="-67" width="120" height="80" as="geometry" />
        </mxCell>
        <mxCell id="HW4OlsrSj3rVqDo6cvlG-5" value="" style="edgeStyle=none;curved=1;rounded=0;orthogonalLoop=1;jettySize=auto;html=1;fontSize=12;startSize=8;endSize=8;" edge="1" parent="1" source="HW4OlsrSj3rVqDo6cvlG-2" target="HW4OlsrSj3rVqDo6cvlG-4">
          <mxGeometry relative="1" as="geometry" />
        </mxCell>
        <mxCell id="HW4OlsrSj3rVqDo6cvlG-2" value="limit = 10^12" style="whiteSpace=wrap;html=1;" vertex="1" parent="1">
          <mxGeometry x="189" y="65" width="120" height="60" as="geometry" />
        </mxCell>
        <mxCell id="HW4OlsrSj3rVqDo6cvlG-7" value="" style="edgeStyle=none;curved=1;rounded=0;orthogonalLoop=1;jettySize=auto;html=1;fontSize=12;startSize=8;endSize=8;" edge="1" parent="1" source="HW4OlsrSj3rVqDo6cvlG-4" target="HW4OlsrSj3rVqDo6cvlG-6">
          <mxGeometry relative="1" as="geometry" />
        </mxCell>
        <mxCell id="HW4OlsrSj3rVqDo6cvlG-4" value="edge1, edge2..." style="whiteSpace=wrap;html=1;" vertex="1" parent="1">
          <mxGeometry x="189" y="177" width="120" height="60" as="geometry" />
        </mxCell>
        <mxCell id="HW4OlsrSj3rVqDo6cvlG-9" value="" style="edgeStyle=none;curved=1;rounded=0;orthogonalLoop=1;jettySize=auto;html=1;fontSize=12;startSize=8;endSize=8;" edge="1" parent="1" source="HW4OlsrSj3rVqDo6cvlG-6" target="HW4OlsrSj3rVqDo6cvlG-8">
          <mxGeometry relative="1" as="geometry" />
        </mxCell>
        <mxCell id="HW4OlsrSj3rVqDo6cvlG-6" value="Ввід значень ребер" style="shape=parallelogram;perimeter=parallelogramPerimeter;whiteSpace=wrap;html=1;fixedSize=1;" vertex="1" parent="1">
          <mxGeometry x="189" y="289" width="120" height="60" as="geometry" />
        </mxCell>
        <mxCell id="HW4OlsrSj3rVqDo6cvlG-10" style="edgeStyle=none;curved=1;rounded=0;orthogonalLoop=1;jettySize=auto;html=1;fontSize=12;startSize=8;endSize=8;" edge="1" parent="1" source="HW4OlsrSj3rVqDo6cvlG-8">
          <mxGeometry relative="1" as="geometry">
            <mxPoint x="336.4000244140625" y="441" as="targetPoint" />
          </mxGeometry>
        </mxCell>
        <mxCell id="HW4OlsrSj3rVqDo6cvlG-12" value="true" style="edgeLabel;html=1;align=center;verticalAlign=middle;resizable=0;points=[];fontSize=12;" vertex="1" connectable="0" parent="HW4OlsrSj3rVqDo6cvlG-10">
          <mxGeometry x="0.2405" y="-1" relative="1" as="geometry">
            <mxPoint as="offset" />
          </mxGeometry>
        </mxCell>
        <mxCell id="HW4OlsrSj3rVqDo6cvlG-14" value="" style="edgeStyle=none;curved=1;rounded=0;orthogonalLoop=1;jettySize=auto;html=1;fontSize=12;startSize=8;endSize=8;" edge="1" parent="1" source="HW4OlsrSj3rVqDo6cvlG-8" target="HW4OlsrSj3rVqDo6cvlG-13">
          <mxGeometry relative="1" as="geometry" />
        </mxCell>
        <mxCell id="HW4OlsrSj3rVqDo6cvlG-15" value="else" style="edgeLabel;html=1;align=center;verticalAlign=middle;resizable=0;points=[];fontSize=12;" vertex="1" connectable="0" parent="HW4OlsrSj3rVqDo6cvlG-14">
          <mxGeometry x="-0.35" y="3" relative="1" as="geometry">
            <mxPoint as="offset" />
          </mxGeometry>
        </mxCell>
        <mxCell id="HW4OlsrSj3rVqDo6cvlG-8" value="якщо значення не входять у межі" style="rhombus;whiteSpace=wrap;html=1;" vertex="1" parent="1">
          <mxGeometry x="209" y="401" width="80" height="80" as="geometry" />
        </mxCell>
        <mxCell id="HW4OlsrSj3rVqDo6cvlG-11" value="return 0" style="ellipse;whiteSpace=wrap;html=1;" vertex="1" parent="1">
          <mxGeometry x="337" y="401" width="120" height="80" as="geometry" />
        </mxCell>
        <mxCell id="HW4OlsrSj3rVqDo6cvlG-17" value="" style="edgeStyle=none;curved=1;rounded=0;orthogonalLoop=1;jettySize=auto;html=1;fontSize=12;startSize=8;endSize=8;" edge="1" parent="1" source="HW4OlsrSj3rVqDo6cvlG-13" target="HW4OlsrSj3rVqDo6cvlG-16">
          <mxGeometry relative="1" as="geometry" />
        </mxCell>
        <mxCell id="HW4OlsrSj3rVqDo6cvlG-29" value="true" style="edgeLabel;html=1;align=center;verticalAlign=middle;resizable=0;points=[];fontSize=12;" vertex="1" connectable="0" parent="HW4OlsrSj3rVqDo6cvlG-17">
          <mxGeometry x="-0.1863" y="1" relative="1" as="geometry">
            <mxPoint as="offset" />
          </mxGeometry>
        </mxCell>
        <mxCell id="HW4OlsrSj3rVqDo6cvlG-22" value="" style="edgeStyle=none;curved=1;rounded=0;orthogonalLoop=1;jettySize=auto;html=1;fontSize=12;startSize=8;endSize=8;" edge="1" parent="1" source="HW4OlsrSj3rVqDo6cvlG-13" target="HW4OlsrSj3rVqDo6cvlG-21">
          <mxGeometry relative="1" as="geometry" />
        </mxCell>
        <mxCell id="HW4OlsrSj3rVqDo6cvlG-30" value="else if" style="edgeLabel;html=1;align=center;verticalAlign=middle;resizable=0;points=[];fontSize=12;" vertex="1" connectable="0" parent="HW4OlsrSj3rVqDo6cvlG-22">
          <mxGeometry x="-0.2262" y="-3" relative="1" as="geometry">
            <mxPoint as="offset" />
          </mxGeometry>
        </mxCell>
        <mxCell id="HW4OlsrSj3rVqDo6cvlG-13" value="якщо 1 ребро &amp;lt;= 0" style="rhombus;whiteSpace=wrap;html=1;" vertex="1" parent="1">
          <mxGeometry x="34" y="401" width="80" height="80" as="geometry" />
        </mxCell>
        <mxCell id="HW4OlsrSj3rVqDo6cvlG-18" style="edgeStyle=none;curved=1;rounded=0;orthogonalLoop=1;jettySize=auto;html=1;fontSize=12;startSize=8;endSize=8;" edge="1" parent="1" source="HW4OlsrSj3rVqDo6cvlG-16">
          <mxGeometry relative="1" as="geometry">
            <mxPoint x="-173.00003814697266" y="441" as="targetPoint" />
          </mxGeometry>
        </mxCell>
        <mxCell id="HW4OlsrSj3rVqDo6cvlG-16" value="&quot;ERROR&quot;" style="shape=parallelogram;perimeter=parallelogramPerimeter;whiteSpace=wrap;html=1;fixedSize=1;" vertex="1" parent="1">
          <mxGeometry x="-127" y="411" width="120" height="60" as="geometry" />
        </mxCell>
        <mxCell id="HW4OlsrSj3rVqDo6cvlG-19" value="return 0" style="ellipse;whiteSpace=wrap;html=1;" vertex="1" parent="1">
          <mxGeometry x="-292" y="401" width="120" height="80" as="geometry" />
        </mxCell>
        <mxCell id="HW4OlsrSj3rVqDo6cvlG-26" value="" style="edgeStyle=none;curved=1;rounded=0;orthogonalLoop=1;jettySize=auto;html=1;fontSize=12;startSize=8;endSize=8;" edge="1" parent="1" source="HW4OlsrSj3rVqDo6cvlG-21" target="HW4OlsrSj3rVqDo6cvlG-25">
          <mxGeometry relative="1" as="geometry" />
        </mxCell>
        <mxCell id="HW4OlsrSj3rVqDo6cvlG-38" value="true" style="edgeLabel;html=1;align=center;verticalAlign=middle;resizable=0;points=[];fontSize=12;" vertex="1" connectable="0" parent="HW4OlsrSj3rVqDo6cvlG-26">
          <mxGeometry x="-0.1078" y="1" relative="1" as="geometry">
            <mxPoint as="offset" />
          </mxGeometry>
        </mxCell>
        <mxCell id="HW4OlsrSj3rVqDo6cvlG-32" value="" style="edgeStyle=none;curved=1;rounded=0;orthogonalLoop=1;jettySize=auto;html=1;fontSize=12;startSize=8;endSize=8;" edge="1" parent="1" source="HW4OlsrSj3rVqDo6cvlG-21" target="HW4OlsrSj3rVqDo6cvlG-31">
          <mxGeometry relative="1" as="geometry" />
        </mxCell>
        <mxCell id="HW4OlsrSj3rVqDo6cvlG-37" value="else if" style="edgeLabel;html=1;align=center;verticalAlign=middle;resizable=0;points=[];fontSize=12;" vertex="1" connectable="0" parent="HW4OlsrSj3rVqDo6cvlG-32">
          <mxGeometry x="0.0469" y="-1" relative="1" as="geometry">
            <mxPoint y="-1" as="offset" />
          </mxGeometry>
        </mxCell>
        <mxCell id="HW4OlsrSj3rVqDo6cvlG-21" value="якщо 2 ребро &amp;lt;= 0" style="rhombus;whiteSpace=wrap;html=1;" vertex="1" parent="1">
          <mxGeometry x="34" y="279" width="80" height="80" as="geometry" />
        </mxCell>
        <mxCell id="HW4OlsrSj3rVqDo6cvlG-27" style="edgeStyle=none;curved=1;rounded=0;orthogonalLoop=1;jettySize=auto;html=1;fontSize=12;startSize=8;endSize=8;entryX=1;entryY=0.5;entryDx=0;entryDy=0;" edge="1" parent="1" source="HW4OlsrSj3rVqDo6cvlG-25" target="HW4OlsrSj3rVqDo6cvlG-28">
          <mxGeometry relative="1" as="geometry">
            <mxPoint x="-164" y="319" as="targetPoint" />
          </mxGeometry>
        </mxCell>
        <mxCell id="HW4OlsrSj3rVqDo6cvlG-25" value="&quot;ERROR&quot;" style="shape=parallelogram;perimeter=parallelogramPerimeter;whiteSpace=wrap;html=1;fixedSize=1;" vertex="1" parent="1">
          <mxGeometry x="-127" y="289" width="120" height="60" as="geometry" />
        </mxCell>
        <mxCell id="HW4OlsrSj3rVqDo6cvlG-28" value="return 0" style="ellipse;whiteSpace=wrap;html=1;" vertex="1" parent="1">
          <mxGeometry x="-292" y="279" width="120" height="80" as="geometry" />
        </mxCell>
        <mxCell id="HW4OlsrSj3rVqDo6cvlG-34" value="" style="edgeStyle=none;curved=1;rounded=0;orthogonalLoop=1;jettySize=auto;html=1;fontSize=12;startSize=8;endSize=8;" edge="1" parent="1" source="HW4OlsrSj3rVqDo6cvlG-31" target="HW4OlsrSj3rVqDo6cvlG-33">
          <mxGeometry relative="1" as="geometry" />
        </mxCell>
        <mxCell id="HW4OlsrSj3rVqDo6cvlG-39" value="true" style="edgeLabel;html=1;align=center;verticalAlign=middle;resizable=0;points=[];fontSize=12;" vertex="1" connectable="0" parent="HW4OlsrSj3rVqDo6cvlG-34">
          <mxGeometry x="-0.2059" relative="1" as="geometry">
            <mxPoint as="offset" />
          </mxGeometry>
        </mxCell>
        <mxCell id="HW4OlsrSj3rVqDo6cvlG-50" style="edgeStyle=none;curved=1;rounded=0;orthogonalLoop=1;jettySize=auto;html=1;fontSize=12;startSize=8;endSize=8;" edge="1" parent="1" source="HW4OlsrSj3rVqDo6cvlG-31" target="HW4OlsrSj3rVqDo6cvlG-40">
          <mxGeometry relative="1" as="geometry" />
        </mxCell>
        <mxCell id="HW4OlsrSj3rVqDo6cvlG-31" value="якщо 2 ребро &amp;gt; 1 ребра" style="rhombus;whiteSpace=wrap;html=1;" vertex="1" parent="1">
          <mxGeometry x="34" y="167" width="80" height="80" as="geometry" />
        </mxCell>
        <mxCell id="HW4OlsrSj3rVqDo6cvlG-35" style="edgeStyle=none;curved=1;rounded=0;orthogonalLoop=1;jettySize=auto;html=1;fontSize=12;startSize=8;endSize=8;entryX=1;entryY=0.5;entryDx=0;entryDy=0;" edge="1" parent="1" source="HW4OlsrSj3rVqDo6cvlG-33" target="HW4OlsrSj3rVqDo6cvlG-36">
          <mxGeometry relative="1" as="geometry">
            <mxPoint x="-168" y="206.99999999999977" as="targetPoint" />
          </mxGeometry>
        </mxCell>
        <mxCell id="HW4OlsrSj3rVqDo6cvlG-33" value="&quot;LOSS&quot;" style="shape=parallelogram;perimeter=parallelogramPerimeter;whiteSpace=wrap;html=1;fixedSize=1;" vertex="1" parent="1">
          <mxGeometry x="-127" y="177" width="120" height="60" as="geometry" />
        </mxCell>
        <mxCell id="HW4OlsrSj3rVqDo6cvlG-36" value="return 0" style="ellipse;whiteSpace=wrap;html=1;" vertex="1" parent="1">
          <mxGeometry x="-292" y="167" width="120" height="80" as="geometry" />
        </mxCell>
        <mxCell id="HW4OlsrSj3rVqDo6cvlG-43" value="" style="edgeStyle=none;curved=1;rounded=0;orthogonalLoop=1;jettySize=auto;html=1;fontSize=12;startSize=8;endSize=8;" edge="1" parent="1" source="HW4OlsrSj3rVqDo6cvlG-40" target="HW4OlsrSj3rVqDo6cvlG-42">
          <mxGeometry relative="1" as="geometry" />
        </mxCell>
        <mxCell id="HW4OlsrSj3rVqDo6cvlG-40" value="3 ребро &amp;lt;= 0" style="rhombus;whiteSpace=wrap;html=1;" vertex="1" parent="1">
          <mxGeometry x="34" y="55" width="80" height="80" as="geometry" />
        </mxCell>
        <mxCell id="HW4OlsrSj3rVqDo6cvlG-44" style="edgeStyle=none;curved=1;rounded=0;orthogonalLoop=1;jettySize=auto;html=1;fontSize=12;startSize=8;endSize=8;entryX=1;entryY=0.5;entryDx=0;entryDy=0;" edge="1" parent="1" source="HW4OlsrSj3rVqDo6cvlG-42" target="HW4OlsrSj3rVqDo6cvlG-45">
          <mxGeometry relative="1" as="geometry">
            <mxPoint x="-168" y="90" as="targetPoint" />
          </mxGeometry>
        </mxCell>
        <mxCell id="HW4OlsrSj3rVqDo6cvlG-42" value="&quot;ERROR&quot;" style="shape=parallelogram;perimeter=parallelogramPerimeter;whiteSpace=wrap;html=1;fixedSize=1;" vertex="1" parent="1">
          <mxGeometry x="-127" y="65" width="120" height="60" as="geometry" />
        </mxCell>
        <mxCell id="HW4OlsrSj3rVqDo6cvlG-45" value="return 0" style="ellipse;whiteSpace=wrap;html=1;" vertex="1" parent="1">
          <mxGeometry x="-292" y="55" width="120" height="80" as="geometry" />
        </mxCell>
        <mxCell id="HW4OlsrSj3rVqDo6cvlG-48" value="" style="edgeStyle=none;curved=1;rounded=0;orthogonalLoop=1;jettySize=auto;html=1;fontSize=12;startSize=8;endSize=8;" edge="1" parent="1" source="HW4OlsrSj3rVqDo6cvlG-46" target="HW4OlsrSj3rVqDo6cvlG-47">
          <mxGeometry relative="1" as="geometry" />
        </mxCell>
        <mxCell id="HW4OlsrSj3rVqDo6cvlG-46" value="і так по черзі перевіряємо до кінця" style="text;html=1;align=center;verticalAlign=middle;whiteSpace=wrap;rounded=0;fontSize=16;" vertex="1" parent="1">
          <mxGeometry x="44" y="-7" width="60" height="30" as="geometry" />
        </mxCell>
        <mxCell id="HW4OlsrSj3rVqDo6cvlG-51" style="edgeStyle=none;curved=1;rounded=0;orthogonalLoop=1;jettySize=auto;html=1;fontSize=12;startSize=8;endSize=8;" edge="1" parent="1" source="HW4OlsrSj3rVqDo6cvlG-47">
          <mxGeometry relative="1" as="geometry">
            <mxPoint x="-30.999954223632812" y="-100" as="targetPoint" />
          </mxGeometry>
        </mxCell>
        <mxCell id="HW4OlsrSj3rVqDo6cvlG-47" value="&quot;WIN&quot;" style="shape=parallelogram;perimeter=parallelogramPerimeter;whiteSpace=wrap;html=1;fixedSize=1;" vertex="1" parent="1">
          <mxGeometry x="14" y="-130" width="120" height="60" as="geometry" />
        </mxCell>
        <mxCell id="HW4OlsrSj3rVqDo6cvlG-52" value="return 0" style="ellipse;whiteSpace=wrap;html=1;" vertex="1" parent="1">
          <mxGeometry x="-153" y="-140" width="120" height="80" as="geometry" />
        </mxCell>
      </root>
    </mxGraphModel>
  </diagram>
</mxfile>
